HIERARCHY
ROOT Hips
{
  OFFSET 51.0842 100.565 8.48719
  CHANNELS 6 Xposition Yposition Zposition Zrotation Xrotation Yrotation
  JOINT spine
  {
    OFFSET 0 8.81704 0.507024
    CHANNELS 3 Zrotation Xrotation Yrotation
    JOINT spine1
    {
      OFFSET 0 10.7766 0
      CHANNELS 3 Zrotation Xrotation Yrotation
      JOINT spine2
      {
        OFFSET 0 10.3259 0
        CHANNELS 3 Zrotation Xrotation Yrotation
        JOINT Neck
        {
          OFFSET 0 26.511 1.26395
          CHANNELS 3 Zrotation Xrotation Yrotation
          JOINT Head
          {
            OFFSET 0 8.00966 0
            CHANNELS 3 Zrotation Xrotation Yrotation
            End Site
            {
              OFFSET 0 19.3879 -6.39386
            }
          }
        }
        JOINT RightShoulder
        {
          OFFSET -4.34795 11.1512 -0.605422
          CHANNELS 3 Zrotation Xrotation Yrotation
          JOINT RightArm
          {
            OFFSET 0 14.6258 0
            CHANNELS 3 Zrotation Xrotation Yrotation
            JOINT RightArmRoll
            {
              OFFSET 0 7.3834 0
              CHANNELS 3 Zrotation Xrotation Yrotation
              JOINT RightForeArm
              {
                OFFSET 0 21.5052 0
                CHANNELS 3 Zrotation Xrotation Yrotation
                JOINT RightForeArmRoll
                {
                  OFFSET 0 8.28532 0
                  CHANNELS 3 Zrotation Xrotation Yrotation
                  JOINT RightHand
                  {
                    OFFSET 0 16.6268 0
                    CHANNELS 3 Zrotation Xrotation Yrotation
                    End Site
                    {
                      OFFSET 0 0 0
                    }
                  }
                }
              }
            }
          }
        }
        JOINT LeftShoulder
        {
          OFFSET 4.34795 11.1512 -0.605422
          CHANNELS 3 Zrotation Xrotation Yrotation
          JOINT LeftArm
          {
            OFFSET 0 14.6258 0
            CHANNELS 3 Zrotation Xrotation Yrotation
            JOINT LeftArmRoll
            {
              OFFSET 0 7.3834 0
              CHANNELS 3 Zrotation Xrotation Yrotation
              JOINT LeftForeArm
              {
                OFFSET 0 21.5052 0
                CHANNELS 3 Zrotation Xrotation Yrotation
                JOINT LeftForeArmRoll
                {
                  OFFSET 0 8.28532 0
                  CHANNELS 3 Zrotation Xrotation Yrotation
                  JOINT LeftHand
                  {
                    OFFSET 0 16.6268 0
                    CHANNELS 3 Zrotation Xrotation Yrotation
                    End Site
                    {
                      OFFSET 0 0 0
                    }
                  }
                }
              }
            }
          }
        }
      }
    }
  }
  JOINT RightUpLeg
  {
    OFFSET -7.8151 -1.43309 -1.20217
    CHANNELS 3 Zrotation Xrotation Yrotation
    JOINT RightUpLegRoll
    {
      OFFSET 0 19.4959 0
      CHANNELS 3 Zrotation Xrotation Yrotation
      JOINT RightLeg
      {
        OFFSET 0 -24.1427 0
        CHANNELS 3 Zrotation Xrotation Yrotation
        JOINT RightLegRoll
        {
          OFFSET 0 24.2217 0
          CHANNELS 3 Zrotation Xrotation Yrotation
          JOINT RightFoot
          {
            OFFSET 0 20.1605 0
            CHANNELS 3 Zrotation Xrotation Yrotation
            JOINT RightToeBase
            {
              OFFSET 0 16.8532 0
              CHANNELS 3 Zrotation Xrotation Yrotation
              End Site
              {
                OFFSET 0.00714343 8.16187 -0.94078
              }
            }
          }
        }
      }
    }
  }
  JOINT LeftUpLeg
  {
    OFFSET 7.8151 -1.43309 -1.20217
    CHANNELS 3 Zrotation Xrotation Yrotation
    JOINT LeftUpLegRoll
    {
      OFFSET 0 19.496 0
      CHANNELS 3 Zrotation Xrotation Yrotation
      JOINT LeftLeg
      {
        OFFSET 0 24.1426 0
        CHANNELS 3 Zrotation Xrotation Yrotation
        JOINT LeftLegRoll
        {
          OFFSET 0 24.4456 0
          CHANNELS 3 Zrotation Xrotation Yrotation
          JOINT LeftFoot
          {
            OFFSET 0 19.9366 0
            CHANNELS 3 Zrotation Xrotation Yrotation
            JOINT LeftToeBase
            {
              OFFSET 0 16.8532 0
              CHANNELS 3 Zrotation Xrotation Yrotation
              End Site
              {
                OFFSET -0.0320138 8.16187 -0.94078
              }
            }
          }
        }
      }
    }
  }
}
MOTION
Frames: 7
Frame Time: 0.00208333
51.2977 100.579 8.63647 -0.905996 -1.23686 2.47751 -0.10823 -2.51235 -0.0897502 -0.218581 -1.02172 -0.184412 -0.216386 0.623342 -0.180766 -3.11828 21.6541 1.77171 -6.5102 -5.53155 -0.233602 38.3977 -8.35708 -4.64147 44.9981 31.2399 35.7113 -9.91241e-006 -1.45595e-006 -2.58825e-008 -155.866 82.2332 155.296 -2.08028e-006 3.32346e-007 -3.00547 8.02887 -4.95145 0.697679 -63.974 -4.25859 3.03585 -108.351 15.0042 -3.19335 4.79137e-006 5.59249e-007 4.82596e-006 -13.2371 4.6375 0.886173 5.20531e-006 5.26823e-006 2.99999 -8.02901 -4.95145 -0.697674 179.142 0.133431 -0.744844 180 7.01554e-015 178.952 178.069 4.82075 179.773 -1.97084e-006 -2.10288e-006 0.0377499 -18.387 67.6303 19.2305 8.13649 25.2327 -3.48774 -176.907 0.454313 2.20601 4.54188e-006 -4.6773e-006 -1.09015 -2.16595 -8.11433 0.166692 1.95755e-006 -6.86802e-006 -0.145465 19.6764 69.2302 -20.5989 -8.14538 25.3795 3.28558 
51.3044 100.582 8.64816 -0.906958 -1.23551 2.47488 -0.108096 -2.51266 -0.0896818 -0.219116 -1.02234 -0.183679 -0.216925 0.622727 -0.180022 -3.15641 21.645 1.77454 -6.51405 -5.52968 -0.242985 38.4106 -8.35982 -4.64437 44.9502 31.2487 36.1778 -9.91241e-006 -1.45595e-006 -2.58825e-008 -154.703 82.9088 154.298 -2.08028e-006 3.32346e-007 -3.00547 8.02887 -4.95145 0.697679 -63.9787 -4.26012 3.03706 -108.355 15.0056 -3.15655 4.79137e-006 5.59249e-007 4.82596e-006 -13.2633 4.65294 0.887122 5.20531e-006 5.26823e-006 2.99999 -8.02901 -4.95145 -0.697674 179.144 0.134491 -0.74886 180 7.01554e-015 178.952 178.074 4.82095 179.773 -1.97084e-006 -2.10288e-006 0.0377445 -18.3872 67.6305 19.2307 8.13649 25.2327 -3.48774 -176.905 0.455298 2.20428 4.54188e-006 -4.6773e-006 -1.09008 -2.16718 -8.11257 0.166749 1.95755e-006 -6.86802e-006 -0.145466 19.6766 69.2304 -20.5991 -8.14526 25.3777 3.288 
51.3172 100.591 8.64777 -0.907689 -1.23433 2.47341 -0.108044 -2.51289 -0.0896064 -0.219557 -1.02279 -0.182883 -0.217373 0.622276 -0.179217 -3.19387 21.637 1.77611 -6.51946 -5.52855 -0.253716 38.4241 -8.36324 -4.6479 44.8964 31.2568 36.6438 -9.91241e-006 -1.45595e-006 -2.58825e-008 -153.195 83.5977 152.949 -2.08028e-006 3.32346e-007 -3.00547 8.02887 -4.95145 0.697679 -63.9841 -4.25936 3.03704 -108.359 15.0059 -3.12046 4.79137e-006 5.59249e-007 4.82596e-006 -13.2895 4.6688 0.888168 5.20531e-006 5.26823e-006 2.99999 -8.02901 -4.95145 -0.697674 179.145 0.134936 -0.752526 180 7.01554e-015 178.952 178.08 4.82064 179.772 -1.97084e-006 -2.10288e-006 0.037739 -18.3875 67.6309 19.231 8.13649 25.2327 -3.48774 -176.904 0.455818 2.20312 4.54188e-006 -4.6773e-006 -1.09002 -2.16797 -8.1102 0.166879 1.95755e-006 -6.86802e-006 -0.145461 19.6763 69.23 -20.5988 -8.14519 25.3767 3.28941 
51.3198 100.587 8.63345 -0.908163 -1.23322 2.47301 -0.108037 -2.51311 -0.089509 -0.219967 -1.02321 -0.181938 -0.217792 0.62185 -0.178265 -3.23088 21.6301 1.7764 -6.52589 -5.52819 -0.265816 38.4385 -8.36678 -4.65157 44.8362 31.2636 37.1123 -9.91241e-006 -1.45595e-006 -2.58825e-008 -151.172 84.3044 151.081 -2.08028e-006 3.32346e-007 -3.00547 8.02887 -4.95145 0.697679 -63.991 -4.25609 3.03575 -108.361 15.0054 -3.08509 4.79137e-006 5.59249e-007 4.82596e-006 -13.3161 4.68487 0.889284 5.20531e-006 5.26823e-006 2.99999 -8.02901 -4.95145 -0.697674 179.147 0.134972 -0.75588 180 7.01554e-015 178.952 178.085 4.81995 179.772 -1.97084e-006 -2.10288e-006 0.0377336 -18.3879 67.6313 19.2314 8.13649 25.2327 -3.48774 -176.903 0.456039 2.20257 4.54188e-006 -4.6773e-006 -1.08995 -2.1683 -8.10733 0.167088 1.95755e-006 -6.86802e-006 -0.14545 19.6756 69.2292 -20.598 -8.14516 25.3763 3.28996 
51.3173 100.584 8.63614 -0.908409 -1.23216 2.47356 -0.108072 -2.51331 -0.0893961 -0.220352 -1.02362 -0.180874 -0.218188 0.621441 -0.177194 -3.26754 21.6243 1.77558 -6.53314 -5.52837 -0.279099 38.4536 -8.37047 -4.6554 44.7705 31.269 37.5819 -9.91241e-006 -1.45595e-006 -2.58825e-008 -148.418 85.0211 148.478 -2.08028e-006 3.32346e-007 -3.00547 8.02887 -4.95145 0.697679 -63.9992 -4.25076 3.03339 -108.361 15.0041 -3.05044 4.79137e-006 5.59249e-007 4.82596e-006 -13.3429 4.70103 0.89045 5.20531e-006 5.26823e-006 2.99999 -8.02901 -4.95145 -0.697674 179.147 0.134663 -0.758962 180 7.01554e-015 178.953 178.09 4.81893 179.771 -1.97084e-006 -2.10288e-006 0.0377281 -18.3884 67.6319 19.2319 8.13649 25.2327 -3.48774 -176.902 0.456024 2.20255 4.54188e-006 -4.6773e-006 -1.08988 -2.16826 -8.10401 0.167363 1.95755e-006 -6.86802e-006 -0.145433 19.6744 69.2279 -20.5967 -8.14517 25.3764 3.28978 
51.3167 100.586 8.64797 -0.90846 -1.23112 2.47496 -0.108147 -2.51351 -0.0892745 -0.220718 -1.02402 -0.17972 -0.218567 0.621042 -0.176033 -3.30397 21.6192 1.77381 -6.54102 -5.52886 -0.293379 38.4692 -8.37435 -4.65942 44.7002 31.2731 38.0515 -9.91241e-006 -1.45595e-006 -2.58825e-008 -144.58 85.7374 144.787 -2.08028e-006 3.32346e-007 -3.00547 8.02887 -4.95145 0.697679 -64.0083 -4.24377 3.03018 -108.36 15.0022 -3.01649 4.79137e-006 5.59249e-007 4.82596e-006 -13.3698 4.71718 0.891649 5.20531e-006 5.26823e-006 2.99999 -8.02901 -4.95145 -0.697674 179.148 0.134078 -0.761814 180 7.01554e-015 178.953 178.095 4.81759 179.771 -1.97084e-006 -2.10288e-006 0.0377227 -18.3889 67.6325 19.2324 8.13649 25.2327 -3.48774 -176.902 0.455838 2.20296 4.54188e-006 -4.6773e-006 -1.08982 -2.1679 -8.10031 0.167691 1.95755e-006 -6.86802e-006 -0.145411 19.6729 69.2262 -20.5951 -8.1452 25.377 3.28901 
51.3311 100.584 8.64615 -0.908346 -1.23005 2.47707 -0.108262 -2.51371 -0.0891508 -0.221072 -1.02442 -0.178506 -0.218935 0.620643 -0.174813 -3.34027 21.6146 1.77127 -6.54934 -5.52945 -0.30847 38.4851 -8.37845 -4.66365 44.6259 31.2759 38.5196 -9.91241e-006 -1.45595e-006 -2.58825e-008 -139.047 86.4373 139.395 -2.08028e-006 3.32346e-007 -3.00547 8.02887 -4.95145 0.697679 -64.018 -4.23556 3.02634 -108.359 14.9999 -2.98323 4.79137e-006 5.59249e-007 4.82596e-006 -13.3966 4.73321 0.892859 5.20531e-006 5.26823e-006 2.99999 -8.02901 -4.95145 -0.697674 179.148 0.133281 -0.764473 180 7.01554e-015 178.953 178.1 4.81597 179.77 -1.97084e-006 -2.10288e-006 0.0377172 -18.3894 67.6332 19.233 8.13649 25.2327 -3.48774 -176.903 0.455542 2.20374 4.54188e-006 -4.6773e-006 -1.08975 -2.1673 -8.09626 0.16806 1.95755e-006 -6.86802e-006 -0.145383 19.671 69.2242 -20.5931 -8.14526 25.3779 3.28779 
